<?xml version="1.0" encoding="utf-8"?>
<!-- Generator: Adobe Illustrator 25.0.0, SVG Export Plug-In . SVG Version: 6.00 Build 0)  -->
<svg version="1.1" id="Capa_1" xmlns="http://www.w3.org/2000/svg" xmlns:xlink="http://www.w3.org/1999/xlink" x="0px" y="0px"
	 viewBox="0 0 1200 1200" enable-background="new 0 0 1200 1200" xml:space="preserve">
<path fill="#7ACC07" d="M199.729,880.222C158.243,821.918,10.72,601.791,71.784,501.493l177.467,300.203
	c-14.93,22.72-29.536,45.736-43.686,68.97C203.62,873.852,201.657,877.031,199.729,880.222z M404.952,661.381
	c-15.56,19.469-30.837,39.225-45.684,59.239c61.843,35.182,241.512,127.733,322.79,67.236L404.952,661.381z M451.404,539.083
	c13.813-15.302,27.916-30.366,42.226-45.232L383.295,244.959c-52.957,77.215,29.924,241.282,62.82,299.966
	C447.859,542.98,449.642,541.03,451.404,539.083z M636.422,419.01c-15.228,13.168-30.312,26.729-45.045,40.47
	c47.278,34.646,180.731,123.608,257.432,86.277L638.437,417.259C637.765,417.839,637.094,418.427,636.422,419.01z M680.048,326.25
	c14.086-10.786,28.407-21.395,42.812-31.701l-37.731-192.814C635.123,155.477,665.726,278.873,680.048,326.25z M859.69,258.835
	c-11.236,6.485-22.472,13.189-33.551,20.049c33.929,27.603,104.578,77.4,155.176,60.842l-119.884-81.899
	C860.852,258.161,860.27,258.5,859.69,258.835z M908.278,182.943c5.019-2.506,10.066-4.949,15.163-7.399L882.778,55.711
	c-21.251,34.788,0.782,100.445,14.039,132.967C900.59,186.763,904.425,184.851,908.278,182.943z M1035.167,175.287
	c-10.311,3.919-20.658,7.965-30.8,12.154c21.125,16.033,54.532,35.736,85.988,30.249L1035.167,175.287z M1083.041,112.432
	L1073.64,50c-15.092,18.796-15.591,49.229-13.72,69.944C1067.589,117.379,1075.275,114.867,1083.041,112.432z M1102.795,144.392
	c0.335-1.869,1.695-3.393,3.514-3.938c7.536-3.204,18.198-2.583,22.879-10.223c5.208-8.737-3.747-20.154-13.503-17.053
	c-7.922,2.249-16.27,4.736-25.519,7.6c-24.433,7.574-46.328,15.15-70.349,24.304c-1.414,0.542-2.99,0.42-4.302-0.335
	c-1.312-0.749-2.219-2.049-2.47-3.537l-15.054-89.131c-23.8,26.984-20.018,75.648-15.269,103.638
	c0.391,2.306-0.854,4.578-3.007,5.488c-46.909,19.891-92.57,42.682-136.987,68.246c-2.611,1.574-6.319,0.224-7.268-2.687
	c0,0-54.755-154.282-54.755-154.282c-33.006,48.47,6.971,146.574,20.585,176.636c1.041,2.302,0.222,5.018-1.92,6.359
	c-63.02,39.523-122.01,83.337-178.78,132.152c-2.575,2.359-7.145,1.075-8.096-2.306c0,0-74.315-234.976-74.315-234.976
	c-56.765,67.845,7.24,231.1,28.802,280.756c0.849,1.954,0.378,4.234-1.177,5.692c-40.026,37.487-80.407,79.143-116.844,120.092
	c-21.979,24.705-44.276,51.114-66.272,78.489c-1.036,1.291-2.623,2.007-4.291,1.872c-1.652-0.118-3.14-1.038-3.982-2.46
	L218.943,372.185c-54.689,92.192,69.978,272.332,110.33,326.389c1.33,1.783,1.337,4.227,0.013,6.017
	c-44.278,59.859-86.383,123.227-124.861,187.395c-83.219,138.767-125.351,240.782-125.768,241.797
	c-2.45,5.997,0.442,12.881,6.449,15.338c5.88,2.478,13.023-0.482,15.349-6.441c0.402-0.988,41.43-100.882,124.874-239.807
	c1.325-2.21,4.105-3.064,6.444-1.98c50.178,23.243,300.471,132.763,390.347,50.152L279.334,828.5
	c-1.458-0.519-2.595-1.682-3.086-3.15c-0.491-1.468-0.282-3.077,0.568-4.372c22.88-34.794,46.756-69.044,70.962-101.802
	c36.439-49.361,75.395-97.542,116.007-143.24c1.754-1.974,4.734-2.263,6.833-0.66c45.598,34.827,197.823,142.393,284.252,98.557
	L519.814,524.237c-1.279-0.815-2.125-2.161-2.302-3.665c-0.177-1.504,0.332-3.012,1.386-4.099
	c19.998-20.665,40.568-40.93,61.138-60.232c36.266-34.036,74.485-66.889,113.542-97.289c1.8-1.399,4.319-1.422,6.138-0.046
	c14.786,11.157,142.703,104.876,218.542,67.654l-172.176-97.88c-3.148-1.678-3.414-6.51-0.43-8.497
	C799.523,281.936,854.505,248.207,913,218.415c1.774-0.9,3.913-0.68,5.464,0.575c22.953,18.58,77.979,58.199,117.933,47.341
	l-87.346-57.049c-3.26-1.998-2.909-7.277,0.621-8.792c39.562-18.557,80.028-34.807,121.312-48.769
	c1.599-0.539,3.37-0.236,4.703,0.795c14.783,11.472,41.701,28.672,67.135,25.634l-38.108-28.84
	C1103.2,148.163,1102.458,146.261,1102.795,144.392z"/>
</svg>
